Storyline

After leaving his LAPD narcotics post following a bungled operation that left him wracked with remorse and regret, Sheriff Ray Owens (Schwarzenegger) moved out of Los Angeles and settled into a life fighting what little crime takes place in sleepy border town Sommerton Junction. But that peaceful existence is shattered when Gabriel Cortez (Eduardo Noriega), the most notorious, wanted drug kingpin in the western hemisphere, makes a deadly yet spectacular escape from an FBI prisoner convoy. (c) Lionsgate

Action | Crime | Thriller - Arnold Schwarzenegger, Forest Whitaker

---------------------------------------------------------------------

Last Stand (2013) OmikronTV - Media Info

General
Complete name                            : D:UploadsLast Stand (2013) BRrip.x264-OmikronTV.mp4
Format                                   : MPEG-4
Format profile                           : Base Media / Version 2
Codec ID                                 : mp42
File size                                : 529 MiB
Duration                                 : 1h 47mn
Overall bit rate mode                    : Variable
Overall bit rate                         : 691 Kbps


Video
ID                                       : 1
Format                                   : AVC
Format/Info                              : Advanced Video Codec
Format profile                           : Main@L3.0
Format settings, CABAC                   : Yes
Format settings, ReFrames                : 2 frames
Codec ID                                 : avc1
Codec ID/Info                            : Advanced Video Coding
Duration                                 : 1h 47mn
Bit rate mode                            : Variable
Bit rate                                 : 607 Kbps
Maximum bit rate                         : 3 831 Kbps
Width                                    : 640 pixels
Height                                   : 480 pixels
Display aspect ratio                     : 4:3
Original display aspect ratio            : 16:9
Frame rate mode                          : Constant
Frame rate                               : 25.000 fps
Standard                                 : PAL
Color space                              : YUV
Chroma subsampling                       : 4:2:0
Bit depth                                : 8 bits
Scan type                                : Progressive
Bits/(Pixel*Frame)                       : 0.079
Stream size                              : 465 MiB (88%)
Language                                 : English


Audio
ID                                       : 2
Format                                   : AAC
Format/Info                              : Advanced Audio Codec
Format profile                           : LC
Codec ID                                 : 40
Duration                                 : 1h 47mn
Bit rate mode                            : Variable
Bit rate                                 : 80.0 Kbps
Maximum bit rate                         : 92.5 Kbps
Channel(s)                               : 2 channels
Channel positions                        : Front: L R
Sampling rate                            : 48.0 KHz
Compression mode                         : Lossy
Stream size                              : 61.3 MiB (12%)
Language                                 : English


